<svg id="Layer_1" height="512" viewBox="0 0 64 64" width="512" xmlns="http://www.w3.org/2000/svg"><path d="m3 39.1699219h15.487793l-1.8154297 12.9365234c-.0620117.4423828.1767578.8720703.5849609 1.0527344.1303711.0576172.2685547.0859375.4047852.0859375.2900391 0 .5737305-.1259766.7680664-.359375l11.7451172-14.0751953c.1503906-.1796875.2324219-.40625.2324219-.640625v-26.4150391c0-.5527344-.4477539-1-1-1h-26.4077149c-.5522461 0-1 .4472656-1 1v26.4150391c0 .5527343.4477539 1 1 1zm1-26.4150391h24.4077148v25.0527344l-9.2680664 11.1064453 1.4882812-10.6054688c.0405273-.2861328-.0458984-.5761719-.2358398-.7949219-.1894531-.21875-.4648438-.34375-.7543945-.34375h-15.6376953z"/><path d="m61 10.7548828h-26.4077148c-.5522461 0-1 .4472656-1 1v26.4150391c0 .5527344.4477539 1 1 1h15.487793l-1.8154297 12.9365234c-.0620117.4423828.1767578.8720703.5849609 1.0527344.1303711.0576172.2685547.0859375.4047852.0859375.2900391 0 .5737305-.1259766.7680664-.359375l11.7451172-14.0751953c.1503906-.1796875.2324218-.40625.2324218-.640625v-26.4150391c0-.5527344-.4477539-1-1-1zm-1 27.0527344-9.2680664 11.1064453 1.4882812-10.6054688c.0405273-.2861328-.0458984-.5761719-.2358398-.7949219-.1894531-.21875-.4648438-.34375-.7543945-.34375h-15.6376953v-24.415039h24.4077148z"/></svg>