<svg width="300" height="108" viewBox="0 0 300 108" fill="none" xmlns="http://www.w3.org/2000/svg">
<g clip-path="url(#clip0_208_30)">
<path fill-rule="evenodd" clip-rule="evenodd" d="M296.026 0C298.221 0 300 2.93073 300 6.54545V101.455C300 105.069 298.221 108 296.026 108H115.161C115.161 104.384 110.098 102 107.903 102C105.709 102 100.645 104.384 100.645 108H3.97351C1.77914 108 0 105.069 0 101.455V6.54545C0 2.93073 1.77914 0 3.97351 0H100.645C100.645 3.61473 105.709 6 107.903 6C110.098 6 115.161 3.61473 115.161 0H194.702H296.026Z" fill="white"/>
</g>
<defs>
<clipPath id="clip0_208_30">
<rect width="300" height="108" fill="white"/>
</clipPath>
</defs>
</svg>
